<svg width="41" height="13" viewBox="0 0 41 13" fill="currentcolor" xmlns="http://www.w3.org/2000/svg">
<path d="M10.092 2.04C10.34 2.088 10.524 2.172 10.644 2.292C10.772 2.412 10.836 2.552 10.836 2.712C10.836 2.976 10.76 3.168 10.608 3.288C10.464 3.408 10.232 3.456 9.912 3.432C9.192 3.376 8.628 3.34 8.22 3.324C7.82 3.3 7.292 3.284 6.636 3.276C6.34 4.748 6.068 6.228 5.82 7.716C5.732 8.26 5.64 8.892 5.544 9.612C5.448 10.324 5.384 10.9 5.352 11.34C5.336 11.572 5.24 11.752 5.064 11.88C4.888 12 4.676 12.06 4.428 12.06C4.164 12.06 3.96 11.996 3.816 11.868C3.672 11.74 3.6 11.572 3.6 11.364C3.6 11.172 3.628 10.856 3.684 10.416C3.748 9.968 3.82 9.5 3.9 9.012C3.988 8.524 4.056 8.1 4.104 7.74C4.192 7.132 4.292 6.528 4.404 5.928C4.516 5.328 4.628 4.76 4.74 4.224C4.764 4.104 4.792 3.968 4.824 3.816C4.856 3.656 4.892 3.48 4.932 3.288C4.148 3.312 3.532 3.376 3.084 3.48C2.636 3.584 2.316 3.732 2.124 3.924C1.94 4.108 1.848 4.348 1.848 4.644C1.848 4.916 1.928 5.176 2.088 5.424C2.12 5.48 2.136 5.54 2.136 5.604C2.136 5.756 2.044 5.9 1.86 6.036C1.684 6.164 1.5 6.228 1.308 6.228C1.172 6.228 1.06 6.188 0.972 6.108C0.812 5.972 0.68 5.78 0.576 5.532C0.472 5.276 0.42 4.988 0.42 4.668C0.42 3.988 0.64 3.444 1.08 3.036C1.528 2.62 2.204 2.316 3.108 2.124C4.02 1.932 5.188 1.836 6.612 1.836C7.492 1.836 8.192 1.852 8.712 1.884C9.24 1.916 9.7 1.968 10.092 2.04ZM10.1519 5.616C9.81591 5.616 9.56391 5.54 9.39591 5.388C9.22791 5.228 9.14391 5.008 9.14391 4.728C9.14391 4.448 9.25191 4.216 9.46791 4.032C9.69191 3.84 9.96791 3.744 10.2959 3.744C10.5919 3.744 10.8319 3.816 11.0159 3.96C11.1999 4.104 11.2919 4.308 11.2919 4.572C11.2919 4.892 11.1879 5.148 10.9799 5.34C10.7719 5.524 10.4959 5.616 10.1519 5.616ZM10.0559 12.06C9.53591 12.06 9.15591 11.876 8.91591 11.508C8.68391 11.14 8.56791 10.652 8.56791 10.044C8.56791 9.684 8.61191 9.224 8.69991 8.664C8.79591 8.096 8.91591 7.568 9.05991 7.08C9.13191 6.824 9.22791 6.648 9.34791 6.552C9.46791 6.456 9.65991 6.408 9.92391 6.408C10.3319 6.408 10.5359 6.544 10.5359 6.816C10.5359 7.016 10.4599 7.48 10.3079 8.208C10.1159 9.088 10.0199 9.684 10.0199 9.996C10.0199 10.236 10.0519 10.42 10.1159 10.548C10.1799 10.676 10.2879 10.74 10.4399 10.74C10.5839 10.74 10.7639 10.64 10.9799 10.44C11.1959 10.24 11.4839 9.924 11.8439 9.492C11.9399 9.38 12.0479 9.324 12.1679 9.324C12.2719 9.324 12.3519 9.372 12.4079 9.468C12.4719 9.564 12.5039 9.696 12.5039 9.864C12.5039 10.184 12.4279 10.432 12.2759 10.608C11.4839 11.576 10.7439 12.06 10.0559 12.06ZM16.633 10.752C16.961 10.816 17.125 10.996 17.125 11.292C17.125 11.492 17.033 11.672 16.849 11.832C16.673 11.984 16.417 12.06 16.081 12.06C15.505 12.06 15.033 11.884 14.665 11.532C14.305 11.172 14.125 10.704 14.125 10.128C14.125 9.816 14.285 9.592 14.605 9.456C14.957 9.304 15.209 9.144 15.361 8.976C15.513 8.8 15.589 8.588 15.589 8.34C15.589 8.196 15.557 8.088 15.493 8.016C15.437 7.944 15.365 7.908 15.277 7.908C15.061 7.908 14.821 8.064 14.557 8.376C14.301 8.688 14.061 9.092 13.837 9.588C13.613 10.076 13.437 10.58 13.309 11.1C13.221 11.476 13.117 11.732 12.997 11.868C12.885 11.996 12.705 12.06 12.457 12.06C12.209 12.06 12.025 11.972 11.905 11.796C11.793 11.612 11.717 11.332 11.677 10.956C11.637 10.58 11.617 10.028 11.617 9.3C11.617 8.068 11.741 6.784 11.989 5.448C12.245 4.112 12.617 2.992 13.105 2.088C13.601 1.176 14.193 0.719999 14.881 0.719999C15.249 0.719999 15.545 0.879999 15.769 1.2C16.001 1.512 16.117 1.92 16.117 2.424C16.117 3.232 15.881 4.072 15.409 4.944C14.937 5.808 14.169 6.82 13.105 7.98C13.081 8.396 13.069 8.824 13.069 9.264C13.453 8.264 13.893 7.54 14.389 7.092C14.885 6.636 15.349 6.408 15.781 6.408C16.181 6.408 16.501 6.544 16.741 6.816C16.989 7.088 17.113 7.424 17.113 7.824C17.113 8.264 17.001 8.668 16.777 9.036C16.553 9.404 16.169 9.732 15.625 10.02C15.673 10.26 15.769 10.428 15.913 10.524C16.065 10.612 16.305 10.688 16.633 10.752ZM14.629 1.908C14.485 1.908 14.325 2.116 14.149 2.532C13.973 2.94 13.801 3.496 13.633 4.2C13.473 4.896 13.341 5.656 13.237 6.48C13.733 5.896 14.141 5.26 14.461 4.572C14.789 3.884 14.953 3.26 14.953 2.7C14.953 2.444 14.925 2.248 14.869 2.112C14.813 1.976 14.733 1.908 14.629 1.908ZM18.7692 9.048C18.5772 9.064 18.4212 9.008 18.3012 8.88C18.1892 8.752 18.1332 8.572 18.1332 8.34C18.1332 8.124 18.1852 7.964 18.2892 7.86C18.4012 7.756 18.5612 7.696 18.7692 7.68L21.2292 7.44C21.4292 7.424 21.5812 7.476 21.6852 7.596C21.7972 7.708 21.8532 7.876 21.8532 8.1C21.8532 8.532 21.6452 8.768 21.2292 8.808L18.7692 9.048ZM31.6662 2.04C31.9142 2.088 32.0982 2.172 32.2182 2.292C32.3462 2.412 32.4102 2.552 32.4102 2.712C32.4102 2.976 32.3342 3.168 32.1822 3.288C32.0382 3.408 31.8062 3.456 31.4862 3.432C30.7662 3.376 30.2022 3.34 29.7942 3.324C29.3942 3.3 28.8662 3.284 28.2102 3.276C27.9142 4.748 27.6422 6.228 27.3942 7.716C27.3062 8.26 27.2142 8.892 27.1182 9.612C27.0222 10.324 26.9582 10.9 26.9262 11.34C26.9102 11.572 26.8142 11.752 26.6382 11.88C26.4622 12 26.2502 12.06 26.0022 12.06C25.7382 12.06 25.5342 11.996 25.3902 11.868C25.2462 11.74 25.1742 11.572 25.1742 11.364C25.1742 11.172 25.2022 10.856 25.2582 10.416C25.3222 9.968 25.3942 9.5 25.4742 9.012C25.5622 8.524 25.6302 8.1 25.6782 7.74C25.7662 7.132 25.8662 6.528 25.9782 5.928C26.0902 5.328 26.2022 4.76 26.3142 4.224C26.3382 4.104 26.3662 3.968 26.3982 3.816C26.4302 3.656 26.4662 3.48 26.5062 3.288C25.7222 3.312 25.1062 3.376 24.6582 3.48C24.2102 3.584 23.8902 3.732 23.6982 3.924C23.5142 4.108 23.4222 4.348 23.4222 4.644C23.4222 4.916 23.5022 5.176 23.6622 5.424C23.6942 5.48 23.7102 5.54 23.7102 5.604C23.7102 5.756 23.6182 5.9 23.4342 6.036C23.2582 6.164 23.0742 6.228 22.8822 6.228C22.7462 6.228 22.6342 6.188 22.5462 6.108C22.3862 5.972 22.2542 5.78 22.1502 5.532C22.0462 5.276 21.9942 4.988 21.9942 4.668C21.9942 3.988 22.2142 3.444 22.6542 3.036C23.1022 2.62 23.7782 2.316 24.6822 2.124C25.5942 1.932 26.7622 1.836 28.1862 1.836C29.0662 1.836 29.7662 1.852 30.2862 1.884C30.8142 1.916 31.2742 1.968 31.6662 2.04ZM30.8567 12.06C30.3607 12.06 29.9647 11.88 29.6687 11.52C29.3727 11.16 29.2247 10.688 29.2247 10.104C29.2247 9.464 29.3727 8.86 29.6687 8.292C29.9647 7.716 30.3567 7.256 30.8447 6.912C31.3407 6.56 31.8647 6.384 32.4167 6.384C32.5927 6.384 32.7087 6.42 32.7647 6.492C32.8287 6.556 32.8807 6.676 32.9207 6.852C33.0887 6.82 33.2647 6.804 33.4487 6.804C33.8407 6.804 34.0367 6.944 34.0367 7.224C34.0367 7.392 33.9767 7.792 33.8567 8.424C33.6727 9.344 33.5807 9.984 33.5807 10.344C33.5807 10.464 33.6087 10.56 33.6647 10.632C33.7287 10.704 33.8087 10.74 33.9047 10.74C34.0567 10.74 34.2407 10.644 34.4567 10.452C34.6727 10.252 34.9647 9.932 35.3327 9.492C35.4287 9.38 35.5367 9.324 35.6567 9.324C35.7607 9.324 35.8407 9.372 35.8967 9.468C35.9607 9.564 35.9927 9.696 35.9927 9.864C35.9927 10.184 35.9167 10.432 35.7647 10.608C35.4367 11.016 35.0887 11.36 34.7207 11.64C34.3527 11.92 33.9967 12.06 33.6527 12.06C33.3887 12.06 33.1447 11.972 32.9207 11.796C32.7047 11.612 32.5407 11.364 32.4287 11.052C32.0127 11.724 31.4887 12.06 30.8567 12.06ZM31.2887 10.848C31.4647 10.848 31.6327 10.744 31.7927 10.536C31.9527 10.328 32.0687 10.052 32.1407 9.708L32.5847 7.5C32.2487 7.508 31.9367 7.636 31.6487 7.884C31.3687 8.124 31.1447 8.444 30.9767 8.844C30.8087 9.244 30.7247 9.668 30.7247 10.116C30.7247 10.364 30.7727 10.548 30.8687 10.668C30.9727 10.788 31.1127 10.848 31.2887 10.848ZM40.1174 10.752C40.4454 10.816 40.6094 10.996 40.6094 11.292C40.6094 11.492 40.5174 11.672 40.3334 11.832C40.1574 11.984 39.9014 12.06 39.5654 12.06C38.9894 12.06 38.5174 11.884 38.1494 11.532C37.7894 11.172 37.6094 10.704 37.6094 10.128C37.6094 9.816 37.7694 9.592 38.0894 9.456C38.4414 9.304 38.6934 9.144 38.8454 8.976C38.9974 8.8 39.0734 8.588 39.0734 8.34C39.0734 8.196 39.0414 8.088 38.9774 8.016C38.9214 7.944 38.8494 7.908 38.7614 7.908C38.5454 7.908 38.3054 8.064 38.0414 8.376C37.7854 8.688 37.5454 9.092 37.3214 9.588C37.0974 10.076 36.9214 10.58 36.7934 11.1C36.7054 11.476 36.6014 11.732 36.4814 11.868C36.3694 11.996 36.1894 12.06 35.9414 12.06C35.6934 12.06 35.5094 11.972 35.3894 11.796C35.2774 11.612 35.2014 11.332 35.1614 10.956C35.1214 10.58 35.1014 10.028 35.1014 9.3C35.1014 8.068 35.2254 6.784 35.4734 5.448C35.7294 4.112 36.1014 2.992 36.5894 2.088C37.0854 1.176 37.6774 0.719999 38.3654 0.719999C38.7334 0.719999 39.0294 0.879999 39.2534 1.2C39.4854 1.512 39.6014 1.92 39.6014 2.424C39.6014 3.232 39.3654 4.072 38.8934 4.944C38.4214 5.808 37.6534 6.82 36.5894 7.98C36.5654 8.396 36.5534 8.824 36.5534 9.264C36.9374 8.264 37.3774 7.54 37.8734 7.092C38.3694 6.636 38.8334 6.408 39.2654 6.408C39.6654 6.408 39.9854 6.544 40.2254 6.816C40.4734 7.088 40.5974 7.424 40.5974 7.824C40.5974 8.264 40.4854 8.668 40.2614 9.036C40.0374 9.404 39.6534 9.732 39.1094 10.02C39.1574 10.26 39.2534 10.428 39.3974 10.524C39.5494 10.612 39.7894 10.688 40.1174 10.752ZM38.1134 1.908C37.9694 1.908 37.8094 2.116 37.6334 2.532C37.4574 2.94 37.2854 3.496 37.1174 4.2C36.9574 4.896 36.8254 5.656 36.7214 6.48C37.2174 5.896 37.6254 5.26 37.9454 4.572C38.2734 3.884 38.4374 3.26 38.4374 2.7C38.4374 2.444 38.4094 2.248 38.3534 2.112C38.2974 1.976 38.2174 1.908 38.1134 1.908Z" fill="white"/>
</svg>
